<?xml version="1.0" encoding="UTF-8"?>
<!DOCTYPE svg PUBLIC "-//W3C//DTD SVG 1.1//EN" "http://www.w3.org/Graphics/SVG/1.1/DTD/svg11.dtd">
<!-- Creator: CorelDRAW X7 -->
<svg xmlns="http://www.w3.org/2000/svg" xml:space="preserve" width="436px" height="100px" version="1.1" style="shape-rendering:geometricPrecision; text-rendering:geometricPrecision; image-rendering:optimizeQuality; fill-rule:evenodd; clip-rule:evenodd"
viewBox="0 0 10765 2470"
 xmlns:xlink="http://www.w3.org/1999/xlink">
 <defs>
  <style type="text/css">
   <![CDATA[
    .fil3 {fill:#fff;fill-rule:nonzero}
    .fil0 {fill:url(#id0)}
    .fil1 {fill:url(#id1)}
    .fil2 {fill:url(#id2)}
    .fil4 {fill:url(#id3)}
   ]]>
  </style>
  <linearGradient id="id0" gradientUnits="userSpaceOnUse" x1="2839.5" y1="1258.65" x2="3838.16" y2="1258.65">
   <stop offset="0" style="stop-opacity:1; stop-color:#F49712"/>
   <stop offset="1" style="stop-opacity:1; stop-color:#F08319"/>
  </linearGradient>
  <linearGradient id="id1" gradientUnits="userSpaceOnUse" xlink:href="#id0" x1="3949.04" y1="1261.59" x2="4767.09" y2="1261.59">
  </linearGradient>
  <linearGradient id="id2" gradientUnits="userSpaceOnUse" xlink:href="#id0" x1="4876.29" y1="1256.98" x2="5886.71" y2="1256.98">
  </linearGradient>
  <linearGradient id="id3" gradientUnits="userSpaceOnUse" xlink:href="#id0" x1="592.844" y1="592.88" x2="1877.39" y2="1877.4">
  </linearGradient>
 </defs>
 <g id="Layer_x0020_1">
  <metadata id="CorelCorpID_0Corel-Layer"/>
  <path class="fil0" d="M2839 812l0 38 371 0 0 895c0,18 3,35 10,50l0 0c7,15 16,29 27,40l0 0c12,11 25,20 41,27l0 0c15,6 31,10 49,10 17,0 33,-4 49,-10l0 0c15,-7 29,-16 40,-27l0 0c11,-11 20,-25 27,-40l0 0c6,-15 10,-32 10,-50l0 0 0 -895 210 0c23,0 44,-5 64,-13l0 0c21,-9 38,-21 53,-36l0 0c15,-15 26,-32 35,-52l0 0c9,-20 13,-42 13,-65l0 0 0 -38 -832 0c-23,0 -45,4 -65,13l0 0c-20,8 -38,20 -53,35l0 0c-15,15 -27,33 -35,53l0 0c-9,20 -14,42 -14,65z"/>
  <path class="fil1" d="M4125 1872l642 0 -1 -2 0 -42c0,-13 -1,-27 -5,-42l0 0c-4,-17 -10,-33 -20,-47l0 0c-9,-15 -21,-27 -34,-37l0 0c-14,-10 -29,-18 -45,-23l0 0c-17,-6 -34,-9 -51,-9l0 0 -410 0 0 -327 381 0c14,0 26,-3 38,-7l0 0c12,-5 22,-12 32,-20l0 0c9,-8 16,-18 22,-30l0 0c6,-11 9,-24 10,-37l0 0c1,-14 -2,-27 -7,-40l0 0c-5,-12 -12,-23 -21,-32l0 0c-9,-10 -19,-17 -32,-22l0 0c-12,-5 -25,-8 -39,-8l0 0 -384 0 0 -292 410 0c32,0 62,-10 89,-28l0 0c27,-19 46,-43 56,-74l0 0c6,-18 9,-38 9,-58l0 0 0 -44 -640 0c-24,0 -47,5 -68,14l0 0c-22,9 -40,22 -56,38l0 0c-16,16 -29,35 -38,56l0 0c-9,22 -14,45 -14,69l0 0 0 867c0,25 5,48 14,69l0 0c9,22 22,40 38,56l0 0c16,16 34,29 56,38l0 0c21,9 44,14 68,14z"/>
  <path class="fil2" d="M4876 1217l0 40 0 39 0 3c0,44 3,87 9,127l0 0c6,41 15,80 27,117l0 0c13,37 28,71 45,103l0 0c17,31 37,60 59,86l0 0c44,51 98,91 163,118l0 0c62,28 133,42 211,42l0 0c38,0 74,-3 108,-8l0 0c34,-6 66,-14 96,-25l0 0c60,-22 110,-53 150,-91l0 0c21,-19 40,-40 56,-63l0 0c16,-23 30,-48 41,-76l0 0c6,-13 12,-28 18,-43l0 0c6,-15 11,-33 16,-53l0 0c4,-21 8,-44 10,-72l0 0c2,-27 2,-59 0,-96l0 0 -55 0c-28,0 -54,5 -79,14l0 0c-25,9 -47,22 -67,38l0 0c-17,14 -30,31 -42,50l0 0c-11,19 -19,39 -24,60l0 0c-1,5 -2,9 -3,13l0 0c-1,5 -2,9 -3,13l0 0c-10,27 -24,51 -43,71l0 0c-18,20 -42,34 -72,45l0 0c-15,5 -32,8 -50,10l0 0c-17,3 -37,4 -57,4l0 0c-86,0 -151,-32 -193,-94l0 0c-41,-62 -62,-158 -62,-290l0 0 0 -42 0 -42c0,-132 21,-228 62,-291l0 0c42,-62 107,-94 193,-94l0 0c41,0 77,5 107,15l0 0c29,10 53,25 72,44l0 0c19,20 33,43 43,71l0 0c1,4 2,9 3,13l0 0c1,5 2,9 3,14l0 0c5,21 13,41 24,60l0 0c12,18 25,35 42,49l0 0c20,16 42,29 67,38l0 0c25,10 51,15 79,15l0 0 55 0c2,-37 2,-69 0,-97l0 0c-2,-27 -6,-51 -10,-71l0 0c-5,-21 -10,-39 -16,-54l0 0c-6,-15 -12,-30 -18,-43l0 0c-11,-27 -25,-52 -41,-75l0 0c-16,-23 -35,-45 -56,-64l0 0c-42,-38 -92,-68 -150,-90l0 0c-59,-22 -127,-33 -204,-33l0 0c-80,0 -150,14 -211,42l0 0c-65,26 -119,66 -163,118l0 0c-22,26 -42,54 -59,85l0 0c-17,31 -32,65 -45,102l0 0c-24,74 -36,156 -36,248z"/>
  <path class="fil3" d="M7011 1215l0 488c-6,9 -15,18 -24,27 -10,9 -22,19 -34,29 -13,10 -28,20 -43,29 -16,9 -34,17 -53,26 -19,9 -39,17 -62,24 -22,7 -46,13 -73,20 -26,5 -54,9 -83,12 -30,3 -61,4 -95,4 -79,0 -151,-13 -216,-38 -33,-14 -63,-30 -91,-49 -28,-18 -54,-41 -77,-66 -46,-50 -82,-112 -108,-186 -26,-74 -38,-158 -38,-252l0 -72c0,-94 12,-178 37,-253 12,-37 26,-71 43,-102 17,-30 37,-58 60,-84 43,-49 97,-87 161,-115 64,-26 135,-39 212,-39 78,0 147,10 205,29 30,10 57,22 81,36 24,14 45,30 65,48 39,36 70,79 91,129 1,0 1,1 1,2l1 0c7,19 14,42 21,67 7,25 11,57 12,95l0 1c0,11 1,23 1,35 0,11 -1,24 -2,37l-55 0c-27,0 -53,-4 -78,-13 -24,-9 -46,-22 -65,-38 -17,-14 -31,-30 -41,-49 -10,-18 -18,-38 -24,-59 -2,-7 -5,-14 -9,-22 -2,-3 -4,-6 -6,-8 -2,-3 -3,-6 -5,-9 -6,-7 -13,-13 -19,-19 -7,-6 -13,-12 -18,-17 -8,-6 -16,-11 -25,-15 -9,-5 -18,-9 -27,-13 -28,-9 -60,-14 -97,-14 -86,0 -152,33 -197,97 -44,65 -66,162 -66,291l0 74c0,129 24,226 72,291 49,65 121,98 215,98 31,0 57,-2 79,-6 22,-4 41,-10 57,-15 8,-3 15,-6 22,-9 6,-3 13,-6 18,-10 5,-4 10,-7 14,-11 5,-3 9,-6 12,-10l0 -210 -230 0 0 -21c0,-23 4,-44 13,-64 9,-20 21,-38 36,-53 15,-15 32,-26 52,-35 20,-9 42,-13 65,-13l315 0z"/>
  <path class="fil3" d="M7451 579l0 1180c0,17 -3,33 -10,47 -6,15 -14,28 -25,38 -11,11 -24,20 -38,26 -15,6 -30,9 -47,9 -16,0 -31,-3 -46,-9 -14,-6 -27,-15 -38,-26 -11,-10 -20,-23 -26,-38 -7,-14 -10,-30 -10,-47l0 -993c0,-25 5,-50 15,-73 10,-23 23,-42 40,-59 17,-17 37,-30 60,-40 23,-10 47,-15 73,-15l52 0z"/>
  <path class="fil3" d="M7847 1426c0,37 3,72 10,105 7,32 18,60 32,84 15,24 35,43 58,57 24,14 53,21 88,21 34,0 63,-7 86,-21 24,-14 44,-33 59,-57 15,-24 26,-52 32,-84 7,-33 11,-68 11,-105l0 -17c0,-36 -4,-70 -11,-103 -6,-32 -17,-60 -32,-85 -15,-24 -35,-43 -59,-58 -24,-14 -53,-21 -87,-21 -34,0 -63,7 -87,21 -23,15 -43,34 -58,58 -14,25 -25,53 -32,85 -7,33 -10,67 -10,103l0 17zm-243 -17c0,-66 10,-127 29,-184 19,-56 47,-105 83,-147 36,-41 81,-73 135,-97 53,-23 114,-35 183,-35 68,0 130,12 183,35 54,24 99,56 136,97 37,42 65,91 84,147 19,57 28,118 28,184l0 18c0,66 -9,128 -28,184 -19,56 -47,105 -84,146 -37,41 -82,73 -135,97 -53,23 -114,35 -183,35 -69,0 -130,-12 -183,-35 -54,-24 -99,-56 -136,-97 -36,-41 -64,-90 -83,-146 -19,-56 -29,-118 -29,-184l0 -18z"/>
  <path class="fil3" d="M8852 1593c15,30 35,54 61,70 27,17 60,26 98,26 33,0 60,-7 81,-20 22,-14 40,-34 54,-58 7,-12 13,-25 18,-39 4,-13 9,-28 13,-44 2,-16 5,-33 6,-50 1,-17 2,-35 2,-53l0 -19c0,-18 -1,-36 -2,-54 -1,-17 -4,-34 -7,-51 -7,-32 -17,-61 -30,-85 -16,-25 -34,-44 -55,-56 -21,-14 -48,-21 -81,-21 -38,0 -70,8 -97,25 -26,17 -46,40 -61,70l0 359zm-246 -1015l43 0c28,0 54,6 79,16 25,11 46,25 64,44 19,18 33,40 44,65 10,24 16,51 16,79l0 258c27,-31 59,-55 95,-73 18,-8 37,-15 58,-19 21,-5 43,-7 66,-7 56,0 107,11 151,34 44,22 81,54 112,95 16,20 29,43 41,67 11,25 21,51 29,80 16,58 24,122 24,189l0 19c0,65 -8,126 -24,183 -16,57 -39,106 -70,146 -30,41 -67,73 -111,97 -42,23 -92,34 -150,34 -52,0 -96,-10 -133,-29 -38,-19 -71,-47 -100,-84l-4 -4c-1,-1 -3,-3 -4,-4 -2,-1 -3,-2 -3,-2 -16,32 -40,58 -71,77 -31,20 -66,30 -104,30l-47 0 -1 -1291z"/>
  <path class="fil3" d="M10088 1450l-97 0c-31,0 -58,4 -82,10 -22,7 -41,16 -56,29 -14,12 -25,26 -33,43 -7,17 -11,35 -11,55 0,29 10,54 31,73 21,19 49,29 86,29 10,0 20,-1 29,-2 9,-1 18,-3 27,-6 16,-4 31,-11 45,-19 8,-4 14,-8 20,-13 6,-4 12,-9 17,-14 5,-6 9,-11 13,-16 4,-6 8,-11 11,-17l0 -152zm189 422c-39,0 -75,-10 -107,-30 -32,-21 -57,-47 -74,-79 -12,12 -25,26 -40,42 -15,15 -31,27 -49,37 -36,19 -80,28 -132,28 -43,0 -83,-6 -120,-19 -18,-7 -35,-16 -52,-25 -16,-9 -31,-19 -43,-31 -27,-23 -49,-51 -65,-84 -15,-32 -23,-68 -23,-107 0,-46 9,-87 25,-124 10,-18 21,-34 34,-50 12,-15 27,-29 45,-41 17,-13 37,-24 58,-34 21,-9 44,-17 70,-23 25,-7 53,-12 82,-15 30,-3 62,-5 96,-5l106 0 0 -51c0,-41 -11,-73 -32,-98 -10,-13 -23,-22 -40,-29 -16,-6 -35,-9 -57,-10 -7,0 -16,0 -27,1 -10,0 -19,1 -27,3 -5,1 -12,3 -20,5 -8,3 -16,7 -25,13 -9,6 -17,15 -26,25 -8,10 -15,23 -21,39 -14,29 -35,53 -62,73 -27,19 -58,31 -92,35 -6,1 -13,2 -21,2 -9,1 -17,1 -25,1 -9,0 -19,0 -29,-1l1 0 -1 0 1 -64c0,-39 7,-75 21,-110 15,-35 36,-65 64,-92 14,-14 29,-26 43,-35 15,-9 28,-17 40,-23 14,-7 27,-12 39,-16 4,-1 7,-2 10,-4 4,-1 7,-2 11,-3 46,-15 98,-23 156,-23 50,0 98,7 142,20 44,13 82,32 114,59 31,25 56,58 75,97 8,20 14,41 19,63 4,23 7,48 7,74l0 609 -49 0z"/>
  <path class="fil3" d="M10765 579l0 1180c0,17 -3,33 -9,47 -6,15 -15,28 -26,38 -11,11 -24,20 -38,26 -15,6 -30,9 -46,9 -17,0 -32,-3 -47,-9 -14,-6 -27,-15 -38,-26 -11,-10 -19,-23 -26,-38 -6,-14 -9,-30 -9,-47l0 -993c0,-25 4,-50 14,-73 10,-23 23,-42 41,-59 17,-17 37,-30 59,-40 23,-10 47,-15 74,-15l51 0z"/>
  <path class="fil4" d="M0 1235l0 2c0,11 0,22 0,33l0 0c1,3 1,7 1,11l0 0c0,7 1,15 1,23l0 0c0,4 0,9 1,13l0 0c0,7 1,14 1,21l0 0c1,5 1,9 1,14l0 0c1,6 2,13 3,20l0 0c0,5 1,9 1,13l0 0c1,8 2,15 3,22l0 0c0,4 1,8 2,12l0 0c1,8 2,16 4,25l0 0c0,2 0,5 1,8l0 0c2,11 4,22 6,33l0 0c1,1 1,2 1,4l0 0c2,9 4,19 6,29l0 0c1,3 2,6 3,9l0 0c2,8 4,15 6,23l0 0c1,4 2,7 3,11l0 0c1,7 3,14 5,21l0 0c2,4 3,8 4,11l0 0c2,7 4,14 6,22l0 0c2,3 3,6 4,10l0 0c2,7 5,15 8,23l0 0c1,2 2,5 3,8l0 0c3,10 7,20 11,30l0 0c0,0 0,0 0,0l0 0c4,11 9,22 13,32l0 0c0,1 1,2 1,2l0 0c4,10 8,19 12,28l0 0c1,2 2,5 3,7l0 0c4,8 8,15 11,23l0 0c2,2 3,5 4,8l0 0c4,7 8,14 11,21l0 0c2,3 3,6 5,8l0 0c3,8 8,15 12,23l0 0c1,2 2,4 3,6l0 0c5,8 10,17 15,25l0 0c1,1 1,2 2,3l0 0c17,29 35,57 55,84l0 0c1,1 2,2 3,3l0 0c5,8 11,16 17,23l0 0c1,2 2,3 3,5l0 0c6,7 12,15 18,22l0 0c1,1 2,3 3,4l0 0c6,8 12,15 19,23l0 0c1,1 1,1 1,2l0 0c14,15 27,30 41,45l0 0c17,18 35,36 53,53l0 0c0,0 0,0 0,0l0 0c8,8 17,15 25,22l0 0c0,1 0,1 1,1l0 0c8,8 17,15 25,22l0 0c0,0 0,0 0,0l0 0c8,7 16,13 24,20l0 0c1,0 2,1 2,2l0 0c0,0 0,0 0,0l0 0c211,167 478,267 768,267l0 0c682,0 1235,-553 1235,-1235l0 0c0,-448 -238,-840 -595,-1056l0 0c0,-1 0,-1 0,-1l0 0c-11,-6 -21,-12 -32,-18l0 0c-3,-2 -6,-3 -8,-5l0 0c-9,-5 -18,-9 -26,-14l0 0c-3,-1 -5,-3 -8,-4l0 0c-11,-6 -22,-11 -33,-16l0 0c-2,-1 -4,-2 -7,-4l0 0c-9,-4 -18,-8 -27,-12l0 0c-3,-1 -7,-3 -10,-4l0 0c-9,-4 -18,-8 -28,-12l0 0c-2,-1 -4,-2 -6,-3l0 0c-12,-4 -23,-8 -34,-13l0 0c-4,-1 -7,-2 -11,-3l0 0c-8,-3 -17,-6 -26,-9l0 0c-3,-1 -7,-2 -11,-4l0 0c-11,-3 -23,-7 -34,-10l0 0c-1,0 -3,-1 -4,-1l0 0c-11,-3 -22,-6 -33,-9l0 0c-4,-1 -8,-2 -11,-3l0 0c-9,-2 -19,-4 -28,-6l0 0c-3,-1 -6,-1 -10,-2l0 0c-12,-3 -24,-5 -36,-7l0 0c-3,-1 -6,-1 -9,-1l0 0c-9,-2 -19,-4 -29,-5l0 0c-4,-1 -8,-1 -12,-2l0 0c-10,-1 -21,-2 -31,-4l0 0c-3,0 -5,0 -8,0l0 0c-12,-2 -25,-3 -38,-4l0 0c-3,0 -6,0 -10,0l0 0c-10,-1 -20,-1 -30,-2l0 0c-3,0 -7,0 -11,0l0 0c-13,-1 -26,-1 -39,-1l0 0c-682,0 -1235,553 -1235,1235zm1242 -1080c218,0 420,65 590,176l0 0c248,162 425,423 476,726l0 0 -188 0 -4 0c-21,-77 -53,-150 -85,-210l0 0c-25,-51 -56,-100 -90,-146l0 0c-52,-66 -112,-125 -180,-175l0 0c-145,-107 -325,-170 -519,-170l0 0c-311,0 -585,162 -741,407l0 0 -230 0c176,-360 545,-608 971,-608zm-170 472c0,-91 73,-164 163,-164l0 0c90,0 164,73 164,164l0 0c0,90 -74,163 -164,163l0 0c-90,0 -163,-73 -163,-163zm-484 1467c-258,-197 -426,-509 -426,-859l0 0c0,-60 5,-119 15,-177l0 0c12,-72 31,-142 56,-208l0 0 219 0 253 0 202 0 228 0 471 0 361 0c31,59 63,131 83,207l0 0 -12 0 -554 0 -133 0 0 195 0 666 -217 0 0 -389 0 -471 -753 0c-12,57 -18,117 -18,177l0 0c0,297 148,560 374,719l0 0c143,101 317,160 505,160l0 0c37,0 73,-2 109,-6l0 0 0 202c-36,3 -72,5 -109,5l0 0c-245,0 -472,-82 -654,-221l0 0z"/>
 </g>
</svg>
