<?xml version="1.0" encoding="UTF-8"?>
<!DOCTYPE svg PUBLIC "-//W3C//DTD SVG 1.1//EN" "http://www.w3.org/Graphics/SVG/1.1/DTD/svg11.dtd">
<!-- Creator: CorelDRAW X7 -->
<svg xmlns="http://www.w3.org/2000/svg" xml:space="preserve" width="779px" height="1126px" version="1.1" style="shape-rendering:geometricPrecision; text-rendering:geometricPrecision; image-rendering:optimizeQuality; fill-rule:evenodd; clip-rule:evenodd"
viewBox="0 0 238581 345162"
 xmlns:xlink="http://www.w3.org/1999/xlink">
 <defs>
  <style type="text/css">
   <![CDATA[
    .fil0 {fill:#FEFEFE}
   ]]>
  </style>
 </defs>
 <g id="Layer_x0020_1">
  <metadata id="CorelCorpID_0Corel-Layer"/>
  <path class="fil0" d="M167055 229960l5604 12763c-7159,13507 -6896,10818 2310,30441 4522,9639 28904,64371 33508,68568 6711,6119 33205,7422 17924,-25547l-26114 -55595c-5427,-12502 -5959,-18666 -21361,-20655l-5999 -13649c12741,-4965 26710,-18068 33700,-25752 10743,-11811 16622,-20041 23257,-35487 13156,-30625 10901,-69172 -3494,-97823 -23461,-46699 -88711,-88735 -158314,-55041 -96426,46678 -85496,178919 1821,216605 14817,6396 28841,10466 47383,10922 22380,551 31614,-4970 49775,-9750zm8615 -177863c-6380,-6339 -34141,-22276 -29734,-10280 1582,4305 1712,1007 11530,6207 9553,5058 18881,12278 25224,20788 6567,8809 6681,12224 12475,11663 3908,-8041 -13133,-23345 -19495,-28378zm-65000 -37254c-57825,6055 -101237,50286 -96671,114302 3976,55756 52844,101581 114828,96078 57028,-5063 99948,-51897 95554,-115192 -3774,-54345 -53659,-101477 -113711,-95188z"/>
 </g>
</svg>
