<?xml version="1.0" standalone="no"?>
<!DOCTYPE svg PUBLIC "-//W3C//DTD SVG 20010904//EN"
 "http://www.w3.org/TR/2001/REC-SVG-20010904/DTD/svg10.dtd">
<svg version="1.0" xmlns="http://www.w3.org/2000/svg"
 width="700.000000pt" height="700.000000pt" viewBox="0 0 700.000000 700.000000"
 preserveAspectRatio="xMidYMid meet">
<metadata>
Created by potrace 1.11, written by Peter Selinger 2001-2013
</metadata>
<g transform="translate(0.000000,700.000000) scale(0.100000,-0.100000)"
fill="#000000" stroke="none">
<path d="M3278 6995 c-2 -1 -41 -5 -88 -9 -81 -6 -116 -10 -185 -21 -16 -3
-48 -7 -70 -10 -39 -6 -210 -41 -250 -51 -11 -3 -31 -7 -44 -10 -75 -16 -295
-87 -453 -148 -91 -35 -348 -160 -426 -208 -34 -21 -67 -38 -72 -38 -6 0 -10
-4 -10 -10 0 -5 -5 -10 -11 -10 -17 0 -230 -147 -344 -238 -438 -349 -808
-826 -1019 -1312 -21 -47 -42 -94 -47 -105 -41 -89 -127 -360 -168 -525 -17
-73 -50 -251 -56 -305 -3 -27 -8 -68 -11 -90 -21 -148 -28 -505 -14 -660 16
-177 17 -190 24 -222 3 -16 8 -53 11 -83 4 -30 10 -71 15 -90 5 -19 12 -51 15
-70 7 -50 53 -227 72 -280 8 -25 17 -56 20 -70 2 -14 8 -34 13 -45 4 -11 18
-47 30 -80 12 -33 26 -68 31 -77 5 -10 9 -23 9 -29 0 -7 15 -44 34 -83 19 -39
53 -109 75 -156 52 -108 119 -228 149 -265 12 -15 22 -32 22 -37 0 -5 18 -36
40 -68 22 -32 40 -62 40 -65 0 -6 11 -20 40 -54 8 -9 28 -37 45 -61 27 -41 54
-74 95 -119 8 -9 48 -57 89 -106 78 -93 214 -235 226 -235 4 0 17 -11 29 -24
11 -13 66 -60 121 -105 129 -106 122 -100 180 -141 28 -19 52 -37 55 -40 3 -3
43 -31 90 -61 323 -212 658 -363 1018 -460 115 -31 130 -34 187 -45 17 -3 48
-9 70 -14 22 -5 60 -11 85 -15 25 -3 52 -8 60 -10 17 -4 109 -14 230 -25 89
-7 516 -5 585 4 22 3 60 7 85 10 458 50 965 219 1370 458 103 61 276 178 346
233 28 22 68 54 90 70 87 67 253 224 354 332 297 320 532 692 693 1098 49 123
130 371 142 437 3 12 14 64 25 113 25 113 27 127 44 250 26 186 29 230 31 465
1 284 -25 542 -79 775 -2 11 -11 52 -20 90 -38 163 -131 429 -210 598 -20 43
-36 80 -36 81 0 23 -208 371 -297 496 -193 274 -492 580 -763 782 -93 69 -306
209 -403 265 -72 41 -340 168 -387 184 -14 4 -70 24 -125 44 -113 41 -113 41
-290 91 -71 20 -143 38 -160 40 -16 2 -48 8 -70 13 -22 6 -67 13 -100 17 -33
4 -67 8 -75 9 -8 2 -44 6 -80 9 -36 4 -81 9 -100 12 -35 6 -516 14 -522 9z
m472 -450 c41 -3 91 -7 110 -9 19 -3 59 -7 89 -10 29 -4 56 -8 60 -10 3 -2 29
-7 57 -11 41 -5 140 -27 314 -70 49 -11 269 -91 345 -125 716 -312 1311 -909
1607 -1610 83 -197 171 -499 193 -662 l4 -26 -271 1 -270 2 -32 105 c-67 217
-212 524 -335 713 -305 466 -747 821 -1246 1002 -104 37 -278 88 -345 100 -34
6 -87 15 -110 20 -13 3 -53 7 -87 11 -35 3 -86 9 -115 13 -64 8 -347 6 -438
-3 -580 -58 -1119 -315 -1532 -731 -80 -80 -212 -238 -282 -337 l-48 -68 -324
0 c-178 0 -324 2 -324 5 0 11 98 187 154 275 52 84 189 277 205 290 4 3 36 41
73 85 102 124 275 288 443 420 239 189 579 372 882 475 100 34 292 87 350 96
21 3 41 8 44 9 3 2 28 7 55 11 27 3 51 8 54 9 3 2 33 7 65 11 33 3 74 8 90 10
17 2 80 7 140 10 61 4 111 8 112 9 5 3 236 -4 313 -10z m-105 -880 c70 -25
163 -89 205 -141 80 -101 105 -174 105 -309 0 -94 -2 -104 -36 -176 -142 -296
-518 -363 -745 -133 -91 93 -130 184 -132 313 -1 89 23 181 66 251 57 93 184
185 288 209 58 13 192 6 249 -14z m1913 -1075 c29 -1 204 -410 236 -552 l6
-26 -973 0 c-534 -1 -979 -1 -987 -1 -13 -1 -15 -143 -13 -1221 l1 -1220 -91
-1 c-51 0 -189 0 -307 0 l-215 -1 -3 1216 -2 1216 -1069 0 -1069 0 -7 -56 c-4
-31 -9 -68 -11 -83 -2 -14 -6 -39 -9 -56 -17 -117 -23 -410 -10 -520 12 -105
13 -114 31 -230 12 -78 70 -291 106 -390 164 -452 451 -844 835 -1138 60 -46
276 -187 287 -187 3 0 27 -13 54 -29 203 -120 596 -248 847 -276 22 -3 69 -8
105 -12 87 -9 358 -6 445 5 39 5 73 8 76 6 4 -2 6 -133 5 -291 l-1 -286 -35
-4 c-66 -7 -435 -7 -515 1 -117 10 -277 34 -380 57 -49 11 -103 23 -119 25
-47 9 -274 84 -378 125 -95 38 -317 147 -428 210 -85 49 -317 211 -400 280
-82 69 -346 331 -397 394 -94 119 -123 156 -164 215 -157 223 -298 499 -386
755 -23 69 -71 232 -79 268 -2 10 -5 26 -8 35 -3 9 -7 29 -10 45 -3 15 -7 35
-10 45 -3 9 -7 35 -11 57 -3 22 -10 67 -15 100 -44 288 -42 637 5 875 8 41 16
89 19 105 13 86 20 118 42 206 13 53 38 137 55 185 17 49 36 103 41 121 8 24
18 33 37 35 20 2 4802 1 4869 -2z"/>
</g>
</svg>
